# xmcd
#
# Track frame offsets: 
#        150
#        12078
#        32328
#        47761
#        62864
#        78547
#        94334
#        106369
#        120370
#        141273
#        155901
#        175436
#        194396
#        213494
#        227822
#
# Disc length: 3136 seconds
#
# Revision: 3
# Processed by: cddbd v1.4PL0 Copyright (c) Steve Scherf et al.
# Submitted via: ExactAudioCopy v0.90b3
#
DISCID=d00c3e0f
DTITLE=Steve Wariner - Two Teardrops
DYEAR=1900
DGENRE=
TTITLE0=Hands of Time
TTITLE1=Two Teardrops
TTITLE2=You Be My Everything
TTITLE3=I'm Already Taken
TTITLE4=I've Been In That Movie
TTITLE5=If You Don't Know By Now
TTITLE6=Talk to Her Heart
TTITLE7=So Much
TTITLE8=I'll Always Have Denver
TTITLE9=That's Love For you
TTITLE10=Cry No More
TTITLE11=Since You Walked Away
TTITLE12=For The First Time
TTITLE13=Tattoos Of Life
TTITLE14=The Harry Shuffle
EXTD=
EXTT0=
EXTT1=
EXTT2=
EXTT3=
EXTT4=
EXTT5=
EXTT6=
EXTT7=
EXTT8=
EXTT9=
EXTT10=
EXTT11=
EXTT12=
EXTT13=
EXTT14=
PLAYORDER=
